<?xml version="1.0" standalone="no"?>
<!DOCTYPE svg PUBLIC "-//W3C//DTD SVG 20010904//EN"
 "http://www.w3.org/TR/2001/REC-SVG-20010904/DTD/svg10.dtd">
<svg version="1.0" xmlns="http://www.w3.org/2000/svg"
 width="546.000000pt" height="545.000000pt" viewBox="0 0 546.000000 545.000000"
 preserveAspectRatio="xMidYMid meet">

<g transform="translate(0.000000,545.000000) scale(0.100000,-0.100000)"
fill="#000000" stroke="none">
<path d="M2405 5438 c-430 -48 -894 -227 -1247 -479 -612 -438 -995 -1047
-1129 -1794 -27 -151 -38 -565 -20 -738 86 -809 532 -1537 1220 -1995 231
-153 547 -293 818 -361 250 -64 274 -66 688 -66 423 0 459 4 734 81 698 196
1281 655 1649 1297 169 295 297 697 333 1044 18 176 7 588 -20 738 -107 599
-364 1091 -787 1507 -437 430 -1006 701 -1606 767 -115 13 -518 12 -633 -1z
m685 -123 c525 -79 981 -289 1371 -631 684 -601 1007 -1522 848 -2419 -165
-928 -805 -1686 -1699 -2012 -688 -251 -1507 -184 -2145 174 -467 262 -830
638 -1070 1108 -416 814 -370 1807 119 2580 118 187 298 402 452 540 433 389
967 624 1532 675 134 12 466 3 592 -15z"/>
<path d="M2490 5203 c-597 -61 -1147 -328 -1556 -756 -391 -408 -623 -909
-684 -1475 -18 -162 -8 -503 19 -657 73 -423 237 -795 499 -1135 79 -102 298
-324 402 -406 376 -297 826 -483 1292 -533 125 -14 411 -14 536 0 390 42 776
181 1104 397 515 341 884 855 1042 1455 58 218 71 331 71 622 0 294 -8 372
-65 603 -104 424 -310 800 -613 1118 -409 430 -954 700 -1539 763 -89 10 -426
13 -508 4z m610 -48 c203 -32 409 -91 600 -172 136 -58 163 -72 295 -151 474
-284 846 -730 1039 -1244 116 -312 162 -589 153 -933 -5 -220 -23 -350 -71
-543 -107 -420 -330 -813 -638 -1124 -370 -374 -826 -609 -1358 -700 -149 -25
-474 -35 -631 -19 -852 88 -1592 601 -1969 1366 -237 481 -309 1035 -204 1565
157 794 701 1465 1448 1784 199 85 439 150 666 181 141 19 525 13 670 -10z"/>
<path d="M3266 4934 c-3 -9 -6 -29 -6 -45 0 -33 -6 -36 -32 -12 -17 15 -20 15
-28 3 -6 -8 -10 -35 -10 -59 l0 -44 -36 6 c-30 5 -40 2 -61 -19 -24 -24 -24
-27 -10 -42 15 -15 18 -14 40 6 13 12 39 27 58 32 45 13 169 13 169 0 0 -5
-10 -10 -22 -11 -13 0 -17 -3 -10 -6 10 -4 10 -8 1 -19 -9 -11 -8 -14 4 -14
30 0 67 20 67 35 0 11 7 15 23 13 15 -2 21 -9 19 -20 -2 -13 4 -18 23 -18 37
0 31 27 -10 41 -19 7 -35 18 -35 24 0 5 11 30 25 53 23 41 25 62 5 62 -4 0
-11 -11 -14 -25 -4 -14 -14 -25 -23 -25 -9 0 -22 -8 -29 -17 -10 -15 -10 -21
3 -35 15 -17 14 -18 -8 -18 -14 0 -30 9 -38 21 -12 20 -10 24 16 46 18 16 24
26 16 29 -18 8 -16 33 2 40 8 4 15 10 15 15 0 11 -68 -33 -74 -49 -4 -9 2 -10
19 -6 15 4 25 2 25 -4 0 -14 -41 -43 -52 -36 -4 3 -8 0 -8 -5 0 -6 -5 -11 -10
-11 -6 0 -5 9 2 23 12 20 14 37 9 90 -1 21 -17 22 -25 1z m134 -108 c0 -3 -4
-8 -10 -11 -5 -3 -10 -1 -10 4 0 6 5 11 10 11 6 0 10 -2 10 -4z m-154 -33
c-10 -10 -19 5 -10 18 6 11 8 11 12 0 2 -7 1 -15 -2 -18z m74 2 c0 -8 -6 -15
-14 -15 -17 0 -28 14 -19 24 12 12 33 6 33 -9z"/>
<path d="M3388 4893 c7 -3 16 -2 19 1 4 3 -2 6 -13 5 -11 0 -14 -3 -6 -6z"/>
<path d="M1772 4851 c-11 -7 -10 -10 3 -15 19 -7 35 0 35 15 0 11 -20 12 -38
0z"/>
<path d="M1838 4828 c-25 -45 -83 -116 -108 -132 -18 -11 -21 -16 -8 -16 9 0
35 21 57 48 23 26 41 42 41 36 0 -34 -32 -244 -45 -295 -20 -76 -14 -88 8 -17
19 60 25 97 26 149 1 19 7 44 15 55 14 18 15 18 22 0 4 -11 2 -21 -7 -27 -11
-7 -9 -9 6 -9 12 0 36 19 59 46 32 38 35 45 17 39 -17 -5 -21 -2 -21 17 0 24
-16 48 -32 48 -5 0 -7 -12 -6 -26 2 -15 -3 -29 -9 -31 -23 -8 -27 29 -9 80 19
53 16 73 -6 35z m48 -134 c-3 -9 -6 -21 -6 -27 0 -8 -3 -8 -11 0 -13 13 -5 43
12 43 6 0 8 -7 5 -16z m-46 -4 c0 -5 -4 -10 -10 -10 -5 0 -10 5 -10 10 0 6 5
10 10 10 6 0 10 -4 10 -10z"/>
<path d="M1946 4774 c7 -3 9 -15 6 -27 -6 -25 0 -22 17 11 11 20 9 22 -11 21
-13 0 -18 -3 -12 -5z"/>
<path d="M3194 4728 c-4 -6 1 -17 11 -24 15 -11 21 -11 33 -1 8 6 27 17 41 24
24 11 22 11 -26 12 -29 1 -55 -4 -59 -11z"/>
<path d="M1985 4704 c-32 -17 -165 -143 -165 -157 0 -4 28 22 62 58 61 66 111
101 127 91 5 -3 14 1 21 9 17 20 -5 20 -45 -1z"/>
<path d="M3290 4705 c-1 -5 -3 -17 -4 -25 -1 -10 -14 -16 -41 -17 -117 -8
-167 -15 -154 -24 8 -5 53 -6 103 -3 l88 7 -5 -29 c-3 -16 -9 -49 -12 -74 -10
-71 -14 -79 -43 -82 l-27 -4 28 -8 c42 -13 56 8 68 104 11 92 14 101 32 95 26
-8 131 -15 124 -9 -4 4 -37 12 -74 18 -59 10 -68 14 -74 36 -4 14 -8 21 -9 15z"/>
<path d="M1952 4620 c0 -19 2 -27 5 -17 2 9 2 25 0 35 -3 9 -5 1 -5 -18z"/>
<path d="M1986 4591 c-16 -17 -52 -21 -75 -6 -6 3 -11 1 -11 -5 0 -7 9 -14 20
-17 11 -3 20 -6 20 -8 0 -20 -27 -67 -46 -80 -13 -8 -24 -20 -24 -26 0 -8 5
-7 15 1 22 19 26 8 9 -24 -8 -16 -12 -31 -10 -34 3 -2 10 6 16 19 6 13 25 31
43 39 17 8 38 29 47 45 20 35 84 64 148 64 23 1 42 6 42 11 0 19 -77 6 -154
-25 -17 -7 -18 -4 -14 24 6 39 -4 47 -26 22z m4 -41 c0 -16 -26 -40 -44 -40
-12 0 -5 24 12 41 23 23 32 23 32 -1z m-36 -87 c-23 -17 -34 -17 -34 1 0 8 10
22 23 31 20 14 22 14 26 -2 2 -9 -5 -23 -15 -30z"/>
<path d="M1865 4540 c3 -5 15 -10 26 -10 11 0 17 5 14 10 -3 6 -15 10 -26 10
-11 0 -17 -4 -14 -10z"/>
<path d="M2574 4460 c-423 -41 -802 -224 -1095 -528 -139 -145 -218 -254 -303
-421 -108 -213 -165 -416 -187 -665 -15 -175 8 -424 52 -563 10 -32 12 -33 70
-33 59 0 59 0 59 30 0 23 4 30 20 30 20 0 20 7 20 430 0 376 -2 430 -15 430
-11 0 -15 12 -15 45 0 33 4 45 15 45 9 0 15 9 15 24 0 13 7 26 15 30 9 3 15
18 15 36 l0 30 65 0 65 0 0 -35 c0 -22 4 -34 12 -33 7 2 14 -7 16 -19 l3 -23
245 0 244 0 0 45 c0 25 -4 45 -10 45 -17 0 -12 90 5 96 9 4 15 17 14 33 -1 14
2 59 6 99 l8 72 108 0 109 0 0 -45 c0 -25 5 -45 10 -45 6 0 10 -25 10 -55 l0
-55 95 0 95 0 0 80 0 80 35 0 c24 0 35 -5 35 -15 0 -13 42 -15 320 -15 278 0
320 2 320 15 0 10 11 15 35 15 l35 0 0 -80 0 -80 95 0 95 0 0 55 c0 30 5 55
10 55 6 0 10 20 10 45 l0 45 109 0 109 0 6 -52 c3 -29 6 -74 6 -99 0 -32 5
-49 15 -53 17 -6 22 -96 5 -96 -5 0 -10 -20 -10 -45 l0 -45 245 0 c234 0 245
1 245 19 0 10 7 21 15 25 9 3 15 18 15 36 l0 30 65 0 c60 0 65 -2 66 -22 1
-13 1 -27 0 -31 -1 -4 6 -10 14 -13 8 -4 15 -17 15 -30 0 -15 6 -24 15 -24 11
0 15 -12 15 -45 0 -33 -4 -45 -15 -45 -13 0 -15 -54 -15 -430 0 -423 0 -430
20 -430 16 0 20 -7 20 -30 l0 -31 63 3 62 3 22 98 c48 218 49 491 3 715 -134
655 -637 1183 -1280 1343 -189 47 -411 66 -586 49z"/>
<path d="M1746 4375 c-9 -26 -7 -32 5 -12 6 10 9 21 6 23 -2 3 -7 -2 -11 -11z"/>
<path d="M4297 4263 c-4 -3 2 -16 13 -28 l20 -21 -27 -37 c-14 -20 -30 -37
-35 -37 -11 0 -10 7 8 41 15 31 13 59 -5 59 -5 0 -43 -48 -84 -107 -110 -160
-124 -193 -79 -193 10 0 28 21 45 53 15 28 41 67 56 85 24 28 32 32 48 24 12
-7 25 -7 36 -1 11 7 24 6 37 -1 15 -8 29 -7 57 5 21 9 49 13 63 10 24 -6 24
-6 5 9 -11 8 -15 16 -8 16 22 0 42 -12 37 -24 -3 -7 21 -23 56 -39 68 -32 76
-47 25 -47 -46 0 -44 -11 6 -32 45 -19 59 -16 59 12 0 18 -52 70 -70 70 -5 0
-9 23 -8 50 0 48 -13 80 -34 80 -5 0 -8 -12 -6 -27 l3 -28 -82 0 c-46 0 -83 3
-83 7 0 3 16 15 35 27 40 24 44 43 13 65 -23 16 -89 22 -101 9z"/>
<path d="M832 4168 c-5 -7 -13 -23 -16 -35 -4 -11 -13 -27 -21 -33 -23 -19
-18 -40 9 -40 15 0 27 -7 30 -18 11 -33 8 -147 -4 -206 -6 -32 -9 -61 -5 -64
8 -8 35 26 35 45 0 7 6 13 14 13 19 0 65 63 72 100 9 43 24 48 50 17 21 -25
22 -28 8 -57 -9 -17 -20 -28 -25 -25 -5 4 -9 -5 -9 -19 0 -38 27 -33 52 9 27
46 32 39 13 -16 -22 -61 -34 -119 -26 -119 4 0 15 27 25 60 21 68 36 86 36 41
0 -33 8 -38 29 -18 10 10 16 7 33 -13 l20 -24 -22 -18 c-12 -10 -29 -18 -38
-18 -8 0 -12 -3 -9 -7 8 -7 87 26 87 37 0 4 -9 19 -20 33 -24 30 -25 41 -5 57
23 19 18 32 -12 28 -22 -2 -28 1 -28 17 0 16 -6 19 -28 17 -36 -4 -35 14 4 68
19 26 27 46 21 52 -13 13 -62 -11 -55 -27 2 -8 -1 -23 -7 -35 -11 -21 -13 -21
-28 -6 -15 14 -14 17 3 31 19 15 19 16 -4 4 -20 -9 -26 -8 -33 5 -12 22 -30
20 -62 -5 -22 -17 -26 -18 -26 -4 0 22 48 115 60 115 5 0 10 -12 12 -27 2 -22
9 -29 30 -31 23 -3 30 3 47 37 12 22 21 44 21 49 0 5 -20 9 -44 8 -50 -1 -86
-28 -106 -77 -19 -44 -30 -35 -30 25 0 30 -3 61 -6 70 -7 19 -28 21 -42 4z
m108 -189 c0 -11 -6 -33 -14 -47 -8 -15 -17 -35 -20 -44 -7 -22 -22 -23 -29
-4 -12 31 28 116 55 116 4 0 8 -9 8 -21z"/>
<path d="M4395 4047 c5 -19 2 -26 -12 -29 -10 -2 8 -8 41 -12 45 -6 61 -5 67
6 14 21 11 23 -33 36 -24 7 -49 15 -56 18 -9 4 -11 -1 -7 -19z"/>
<path d="M4300 3990 c0 -10 10 -24 22 -31 34 -18 1 -29 -97 -31 -75 -2 -83 -4
-70 -17 12 -12 28 -13 95 -5 44 5 80 7 80 4 0 -3 -9 -18 -20 -35 -24 -36 -25
-45 -5 -71 13 -16 14 -16 9 -2 -8 24 52 117 83 129 13 5 39 9 58 9 31 0 54 14
42 26 -3 3 -37 11 -76 17 -38 6 -68 14 -65 19 3 4 -9 8 -25 8 -24 0 -31 -4
-31 -20z"/>
<path d="M4350 3750 c72 -64 107 -71 129 -24 l11 26 -26 -21 c-15 -12 -30 -21
-34 -21 -4 0 -32 16 -61 35 -53 35 -53 35 -19 5z"/>
<path d="M2410 3440 c0 -86 1 -90 23 -91 12 0 153 -1 312 -2 l290 -2 3 93 3
92 -316 0 -315 0 0 -90z m115 36 c11 -11 11 -21 2 -54 -14 -45 -27 -64 -27
-38 0 9 -4 15 -9 12 -5 -4 -7 3 -4 14 4 14 0 20 -12 20 -17 0 -17 1 -2 18 10
10 17 24 17 30 0 16 18 15 35 -2z m133 -47 c-5 -3 -2 -13 7 -23 15 -15 14 -16
-14 -16 -24 0 -29 3 -24 17 5 13 3 15 -12 9 -18 -6 -18 -6 -2 12 9 10 14 21
11 25 -3 3 0 12 7 20 12 13 15 11 25 -12 6 -15 7 -28 2 -32z m154 36 c3 -14 1
-25 -6 -25 -6 0 -4 -5 4 -10 13 -8 12 -10 -2 -10 -13 0 -18 -9 -19 -27 l-2
-28 -4 27 c-3 20 -8 25 -20 21 -10 -4 -14 -2 -10 4 4 6 1 14 -5 16 -9 4 -10 8
-2 14 6 4 13 16 17 26 10 27 44 21 49 -8z m168 -7 c0 -5 -4 -8 -8 -8 -5 0 -9
-6 -9 -12 0 -7 -4 -22 -8 -32 -7 -16 -5 -18 13 -14 12 4 22 2 22 -2 0 -5 -20
-8 -45 -8 l-45 1 0 50 c0 44 2 49 20 44 11 -3 20 -1 20 4 0 5 9 4 20 -3 11 -7
20 -16 20 -20z"/>
<path d="M2917 3433 c-10 -9 -8 -33 2 -33 5 0 11 9 14 20 5 20 -3 26 -16 13z"/>
<path d="M702 3397 c-27 -29 -28 -51 -2 -77 24 -24 63 -26 84 -4 24 23 20 70
-6 88 -31 22 -51 20 -76 -7z"/>
<path d="M4672 3404 c-27 -19 -29 -64 -4 -87 54 -49 127 19 81 76 -23 31 -45
34 -77 11z"/>
<path d="M2140 3315 c0 -33 4 -45 15 -45 11 0 15 12 15 45 0 33 -4 45 -15 45
-11 0 -15 -12 -15 -45z"/>
<path d="M2230 3315 c0 -33 4 -45 15 -45 11 0 15 12 15 45 0 33 -4 45 -15 45
-11 0 -15 -12 -15 -45z"/>
<path d="M2310 3315 c0 -33 4 -45 15 -45 11 0 15 12 15 45 0 33 -4 45 -15 45
-11 0 -15 -12 -15 -45z"/>
<path d="M3117 3354 c-4 -4 -7 -25 -7 -46 0 -31 3 -39 17 -36 11 2 16 14 17
42 1 37 -12 55 -27 40z"/>
<path d="M3202 3313 c4 -66 28 -70 28 -4 0 39 -4 51 -16 51 -12 0 -14 -10 -12
-47z"/>
<path d="M3280 3315 c0 -33 4 -45 15 -45 11 0 15 12 15 45 0 33 -4 45 -15 45
-11 0 -15 -12 -15 -45z"/>
<path d="M2416 3275 c5 -11 21 -15 60 -15 41 0 54 4 54 15 0 12 -13 15 -60 15
-49 0 -58 -3 -54 -15z"/>
<path d="M2590 3275 c0 -13 20 -15 137 -13 98 2 138 6 141 16 3 9 -29 12 -137
12 -120 0 -141 -2 -141 -15z"/>
<path d="M2930 3275 c0 -12 13 -15 60 -15 47 0 60 3 60 15 0 12 -13 15 -60 15
-47 0 -60 -3 -60 -15z"/>
<path d="M2540 3180 c0 -33 3 -40 20 -40 17 0 20 7 20 40 0 33 -3 40 -20 40
-17 0 -20 -7 -20 -40z"/>
<path d="M2650 3180 l0 -40 80 0 80 0 0 40 0 40 -80 0 -80 0 0 -40z"/>
<path d="M2880 3181 c0 -35 3 -41 21 -41 17 0 20 5 17 37 -2 27 -8 39 -20 41
-15 3 -18 -4 -18 -37z"/>
<path d="M2450 3192 l-22 -18 26 -17 26 -17 0 35 c0 41 -1 41 -30 17z"/>
<path d="M2974 3185 c2 -32 12 -41 31 -25 14 12 14 15 -1 31 -23 25 -31 24
-30 -6z"/>
<path d="M2178 3188 c-2 -6 -2 -24 0 -40 l4 -28 79 0 79 0 0 40 0 40 -79 0
c-51 0 -81 -4 -83 -12z"/>
<path d="M3120 3160 l0 -40 80 0 80 0 0 40 0 40 -80 0 -80 0 0 -40z"/>
<path d="M1400 3145 c0 -11 12 -15 45 -15 33 0 45 4 45 15 0 11 -12 15 -45 15
-33 0 -45 -4 -45 -15z"/>
<path d="M1570 3145 c0 -12 15 -15 75 -15 60 0 75 3 75 15 0 12 -15 15 -75 15
-60 0 -75 -3 -75 -15z"/>
<path d="M1800 3145 c0 -11 12 -15 45 -15 33 0 45 4 45 15 0 11 -12 15 -45 15
-33 0 -45 -4 -45 -15z"/>
<path d="M3560 3145 c0 -11 12 -15 45 -15 33 0 45 4 45 15 0 11 -12 15 -45 15
-33 0 -45 -4 -45 -15z"/>
<path d="M3730 3145 c0 -12 15 -15 75 -15 60 0 75 3 75 15 0 12 -15 15 -75 15
-60 0 -75 -3 -75 -15z"/>
<path d="M3960 3145 c0 -11 12 -15 45 -15 33 0 45 4 45 15 0 11 -12 15 -45 15
-33 0 -45 -4 -45 -15z"/>
<path d="M1462 3082 c-18 -3 -23 -9 -20 -30 l3 -27 195 0 195 0 3 26 c3 22 -2
27 -25 32 -32 6 -314 6 -351 -1z"/>
<path d="M3623 3082 c-17 -2 -23 -10 -23 -28 0 -33 16 -35 220 -32 l175 3 3
26 c3 22 -2 27 -26 32 -30 6 -312 6 -349 -1z"/>
<path d="M2395 3060 c-3 -5 -35 -10 -71 -10 -57 0 -64 -2 -64 -20 0 -16 -8
-19 -57 -22 l-58 -3 -3 -342 -2 -343 25 0 c22 0 25 -4 25 -32 l0 -33 530 -1
530 -1 0 33 c0 27 4 34 20 34 20 0 20 7 20 345 l0 345 -55 0 c-48 0 -55 2 -55
20 0 18 -7 20 -65 20 -37 0 -65 4 -65 10 0 6 -115 10 -324 10 -206 0 -327 -4
-331 -10z"/>
<path d="M1505 2970 c-3 -5 -18 -10 -32 -10 -16 0 -27 -7 -30 -19 -3 -11 -15
-21 -27 -23 -21 -3 -21 -5 -24 -302 -1 -193 1 -303 8 -310 5 -5 10 -20 10 -33
l0 -23 225 0 225 0 0 25 c0 16 6 25 15 25 13 0 15 41 15 310 0 297 -1 310 -19
310 -10 0 -21 9 -24 20 -4 16 -11 20 -32 16 -17 -3 -28 0 -32 10 -4 11 -32 14
-138 14 -79 0 -136 -4 -140 -10z"/>
<path d="M3660 2970 c0 -5 -13 -10 -30 -10 -23 0 -30 -4 -30 -20 0 -15 -7 -20
-25 -20 l-25 0 0 -310 c0 -269 2 -310 15 -310 9 0 15 -9 15 -25 l0 -25 225 0
225 0 0 25 c0 14 5 25 10 25 6 0 10 110 10 310 l0 310 -24 0 c-15 0 -26 7 -29
20 -3 14 -14 20 -31 20 -14 0 -26 5 -26 10 0 6 -53 10 -140 10 -87 0 -140 -4
-140 -10z"/>
<path d="M530 2599 c0 -68 3 -90 13 -87 8 3 13 30 15 76 3 84 -9 85 136 -9
122 -80 126 -79 126 21 0 64 -3 80 -15 80 -12 0 -15 -13 -15 -60 0 -34 -4 -60
-10 -60 -6 0 -57 29 -113 65 -57 36 -111 65 -120 65 -15 0 -17 -12 -17 -91z"/>
<path d="M4730 2666 c0 -8 27 -34 60 -56 33 -23 58 -45 56 -49 -3 -4 -33 -16
-67 -26 -52 -16 -81 -37 -68 -49 2 -2 42 11 88 28 74 29 90 31 139 25 31 -4
60 -6 64 -3 18 11 -4 22 -61 28 -45 5 -70 15 -103 39 -93 71 -108 79 -108 63z"/>
<path d="M718 2302 c-102 -19 -138 -29 -138 -40 0 -9 6 -12 16 -8 9 3 39 9 69
12 l52 6 7 -38 c4 -22 10 -49 13 -60 4 -20 -1 -23 -66 -34 -47 -8 -68 -16 -65
-24 7 -17 284 33 284 51 0 11 -9 12 -37 7 -80 -16 -87 -14 -96 38 -5 27 -7 54
-4 62 3 7 28 16 56 20 35 5 51 11 51 21 0 8 -1 15 -2 14 -2 -1 -65 -13 -140
-27z"/>
<path d="M4660 2268 c-6 -24 -15 -56 -20 -72 -14 -40 -12 -56 4 -56 8 0 17 15
20 35 4 19 8 35 9 35 1 0 56 -15 122 -34 66 -19 123 -32 128 -29 16 10 5 22
-25 28 -18 4 -75 18 -126 33 -100 27 -99 26 -76 86 4 10 1 16 -10 16 -10 0
-19 -15 -26 -42z"/>
<path d="M1130 2025 c0 -3 16 -37 35 -75 l35 -70 1530 0 1530 0 35 70 c19 38
35 72 35 75 0 3 -720 5 -1600 5 -880 0 -1600 -2 -1600 -5z"/>
<path d="M825 1908 c-121 -15 -135 -19 -135 -30 0 -7 17 -9 49 -5 l50 6 17
-45 17 -45 -33 -34 c-18 -18 -30 -39 -28 -45 5 -15 228 178 228 197 0 15 -55
16 -165 1z m135 -13 c0 -5 -105 -85 -112 -85 -10 0 -31 60 -24 67 10 11 136
27 136 18z"/>
<path d="M4525 1900 c-3 -6 2 -13 12 -17 10 -4 70 -28 133 -54 78 -31 117 -43
122 -36 4 7 -40 30 -125 64 -150 61 -134 56 -142 43z"/>
<path d="M1290 1734 c0 -3 25 -36 56 -75 l56 -69 1328 0 1328 0 40 48 c21 26
47 59 57 75 l17 27 -1441 0 c-792 0 -1441 -2 -1441 -6z"/>
<path d="M979 1627 c-84 -45 -114 -130 -63 -178 71 -66 228 15 228 119 0 25
-7 41 -28 58 -35 31 -80 31 -137 1z m104 -8 c51 -27 51 -75 1 -123 -58 -56
-143 -61 -166 -10 -17 38 14 90 72 120 51 27 62 29 93 13z"/>
<path d="M4384 1630 c-28 -11 -54 -48 -54 -76 0 -12 9 -33 21 -48 31 -39 78
-36 128 9 42 38 71 44 95 19 23 -23 20 -51 -10 -81 -20 -20 -32 -24 -55 -19
-21 4 -29 2 -29 -8 0 -21 57 -25 88 -5 43 25 58 69 38 108 -32 60 -80 66 -140
18 -58 -47 -63 -49 -86 -37 -45 24 -13 100 43 100 30 0 36 14 11 24 -19 7 -23
7 -50 -4z"/>
<path d="M1470 1505 c31 -37 192 -167 283 -228 185 -124 410 -217 647 -269
144 -31 500 -33 655 -4 149 27 304 80 450 152 152 75 276 161 401 278 l89 85
-1269 1 c-1107 0 -1267 -2 -1256 -15z m850 -310 c0 -98 -1 -105 -20 -105 -18
0 -20 7 -20 76 0 69 -2 75 -17 69 -39 -16 -53 -17 -53 -4 0 12 82 67 103 68 4
1 7 -46 7 -104z m270 95 c66 -18 92 -118 44 -171 -33 -37 -144 -37 -164 0 -13
24 13 36 34 16 34 -34 97 -20 109 25 4 17 2 18 -15 9 -25 -13 -102 -6 -123 11
-19 16 -19 74 -1 89 12 10 54 26 76 30 3 1 21 -4 40 -9z m565 -4 c40 -17 55
-42 55 -90 0 -69 -35 -106 -100 -106 -63 0 -100 37 -100 100 0 44 21 81 55 96
39 17 49 17 90 0z m-225 -7 c0 -6 -20 -34 -45 -61 -25 -27 -49 -67 -55 -89 -8
-29 -16 -39 -30 -39 -37 0 -15 70 40 133 l32 37 -66 0 c-52 0 -66 3 -66 15 0
12 17 15 95 15 63 0 95 -4 95 -11z"/>
<path d="M2514 1249 c-24 -27 -9 -53 35 -57 37 -4 61 12 61 39 0 39 -66 52
-96 18z"/>
<path d="M3076 1254 c-10 -10 -16 -33 -16 -64 0 -41 4 -52 24 -65 52 -34 98
20 81 95 -10 47 -58 65 -89 34z"/>
<path d="M4124 1325 c-24 -25 -44 -48 -44 -53 0 -7 93 -100 167 -166 50 -45
52 -21 3 29 -43 44 -43 45 -25 65 21 23 51 25 122 6 43 -11 53 -12 57 -1 3 10
-15 19 -64 31 -68 18 -68 18 -67 52 1 26 -6 40 -27 58 -41 36 -72 31 -122 -21z
m111 -5 c23 -25 15 -57 -24 -94 l-29 -28 -39 36 -38 36 37 35 c43 40 67 44 93
15z"/>
<path d="M1320 1299 c-59 -24 -110 -94 -110 -152 0 -33 33 -77 57 -77 6 0 14
-14 18 -30 4 -17 11 -28 16 -24 5 3 7 14 4 25 -5 14 0 21 19 29 68 26 126 97
126 155 0 34 -50 85 -82 84 -13 0 -34 -5 -48 -10z m86 -31 c35 -27 17 -96 -40
-146 -43 -38 -61 -40 -70 -9 l-7 22 -10 -25 -10 -25 -20 24 c-23 28 -24 52 -5
89 38 73 116 107 162 70z"/>
<path d="M3860 1099 c-30 -22 -55 -45 -54 -52 1 -12 140 -214 154 -222 9 -6
130 82 130 95 0 18 -22 10 -71 -25 -27 -19 -51 -35 -54 -35 -3 0 -17 18 -32
41 l-27 40 30 24 c16 14 37 27 47 30 18 7 23 30 9 39 -5 3 -20 -5 -33 -18 -14
-13 -36 -29 -49 -36 -21 -11 -26 -10 -47 16 -13 16 -23 34 -23 41 0 6 23 28
50 48 28 20 48 41 44 46 -8 14 -15 11 -74 -32z"/>
<path d="M1532 1016 c-45 -63 -82 -117 -82 -120 0 -20 30 1 57 42 18 26 53 75
79 110 27 38 43 67 37 73 -5 5 -42 -38 -91 -105z"/>
<path d="M1762 1003 c-5 -10 -35 -66 -66 -125 -59 -112 -62 -118 -47 -118 5 0
34 44 63 98 l53 97 3 -132 c2 -97 6 -133 15 -133 12 0 129 210 135 243 4 19
-15 24 -20 5 -6 -24 -90 -178 -97 -178 -4 0 -6 54 -5 119 2 91 -1 123 -11 131
-10 9 -16 7 -23 -7z"/>
<path d="M3645 947 c-4 -10 -3 -70 4 -134 9 -102 9 -138 -2 -122 -36 53 -152
199 -158 199 -18 0 -7 -21 47 -87 30 -37 70 -87 87 -110 18 -23 37 -41 42 -39
11 3 9 144 -4 246 -5 45 -10 60 -16 47z"/>
<path d="M2076 839 c-76 -60 -92 -199 -29 -249 29 -23 100 -27 125 -7 15 11
44 95 36 102 -6 4 -71 25 -79 25 -23 0 -5 -29 21 -35 33 -7 35 -11 20 -49 -8
-23 -15 -26 -54 -26 -74 0 -101 51 -75 144 23 83 104 116 148 60 12 -15 21
-33 21 -40 0 -8 5 -14 10 -14 6 0 10 13 10 29 0 20 -9 37 -31 55 -38 32 -86
34 -123 5z"/>
<path d="M3320 826 c0 -17 74 -262 81 -270 22 -24 17 12 -18 135 -21 73 -44
134 -51 137 -6 2 -12 1 -12 -2z"/>
<path d="M3135 698 c3 -40 8 -90 11 -111 6 -54 -6 -42 -77 73 -79 130 -93 131
-85 8 10 -141 17 -188 28 -188 6 0 7 39 3 110 -4 61 -5 110 -3 110 3 0 34 -47
69 -105 91 -149 96 -145 82 68 -4 80 -9 107 -20 107 -10 0 -12 -15 -8 -72z"/>
<path d="M2640 620 c0 -115 1 -122 25 -145 41 -42 105 -31 133 22 14 25 17
243 3 243 -5 0 -10 -52 -13 -116 -4 -99 -7 -119 -23 -130 -24 -18 -56 -18 -81
0 -16 13 -19 29 -22 130 -2 64 -8 116 -13 116 -5 0 -9 -54 -9 -120z"/>
</g>
</svg>
